Nobile-Light.ufo
<glyph name="dollar" format="1">
  <advance width="948"/>
  <unicode hex="0024"/>
  <outline>
    <contour>
      <point x="407" y="-195" type="line"/>
      <point x="467" y="-195" type="line"/>
      <point x="567" y="1620" type="line"/>
      <point x="507" y="1620" type="line"/>
    </contour>
    <component base="s" yOffset="94"/>
  </outline>
</glyph>
<glyph name="ampersand" format="1">
  <advance width="1681"/>
  <unicode hex="0026"/>
  <outline>
    <contour>
      <point x="1637" y="62" type="line"/>
      <point x="1674" y="117" type="line"/>
      <point x="1411" y="325" type="line"/>
      <point x="1465" y="491"/>
      <point x="1460" y="628"/>
      <point x="1460" y="884" type="curve"/>
      <point x="1381" y="883" type="line"/>
      <point x="1381" y="636"/>
      <point x="1380" y="522"/>
      <point x="1344" y="368" type="curve"/>
      <point x="632" y="926" type="line"/>
      <point x="900" y="1017"/>
      <point x="1100" y="1051"/>
      <point x="1117" y="1266" type="curve" smooth="yes"/>
      <point x="1141" y="1578"/>
      <point x="916" y="1638"/>
      <point x="674" y="1638" type="curve" smooth="yes"/>
      <point x="433" y="1638"/>
      <point x="253" y="1569"/>
      <point x="253" y="1300" type="curve" smooth="yes"/>
      <point x="253" y="1139"/>
      <point x="360" y="1050"/>
      <point x="495" y="947" type="curve"/>
      <point x="213" y="862"/>
      <point x="125" y="675"/>
      <point x="125" y="450" type="curve" smooth="yes"/>
      <point x="125" y="67"/>
      <point x="451" y="-18"/>
      <point x="725" y="-18" type="curve" smooth="yes"/>
      <point x="1099" y="-18"/>
      <point x="1281" y="22"/>
      <point x="1388" y="256" type="curve"/>
    </contour>
    <contour>
      <point x="720" y="63" type="curve" smooth="yes"/>
      <point x="565" y="63"/>
      <point x="220" y="99"/>
      <point x="220" y="450" type="curve" smooth="yes"/>
      <point x="220" y="674"/>
      <point x="304" y="822"/>
      <point x="548" y="898" type="curve"/>
      <point x="1318" y="296" type="line"/>
      <point x="1220" y="82"/>
      <point x="1082" y="63"/>
    </contour>
    <contour>
      <point x="581" y="980" type="curve"/>
      <point x="465" y="1067"/>
      <point x="340" y="1160"/>
      <point x="340" y="1308" type="curve" smooth="yes"/>
      <point x="340" y="1540"/>
      <point x="508" y="1568"/>
      <point x="675" y="1568" type="curve" smooth="yes"/>
      <point x="879" y="1568"/>
      <point x="1061" y="1518"/>
      <point x="1036" y="1270" type="curve" smooth="yes"/>
      <point x="1020" y="1104"/>
      <point x="884" y="1088"/>
    </contour>
  </outline>
</glyph>
<glyph name="parenleft" format="1">
  <advance width="616"/>
  <unicode hex="0028"/>
  <outline>
    <contour>
      <point x="471" y="-148" type="curve"/>
      <point x="514" y="-103" type="line"/>
      <point x="348" y="62"/>
      <point x="265" y="432"/>
      <point x="265" y="801" type="curve" smooth="yes"/>
      <point x="265" y="1171"/>
      <point x="348" y="1540"/>
      <point x="514" y="1705" type="curve"/>
      <point x="471" y="1750" type="line"/>
      <point x="268" y="1581"/>
      <point x="166" y="1191"/>
      <point x="166" y="801" type="curve" smooth="yes"/>
      <point x="166" y="411"/>
      <point x="268" y="22"/>
    </contour>
  </outline>
</glyph>
<glyph name="parenright" format="1">
  <advance width="616"/>
  <unicode hex="0029"/>
  <outline>
    <contour>
      <point x="145" y="-148" type="line"/>
      <point x="348" y="22"/>
      <point x="450" y="411"/>
      <point x="450" y="801" type="curve" smooth="yes"/>
      <point x="450" y="1191"/>
      <point x="348" y="1581"/>
      <point x="145" y="1750" type="curve"/>
      <point x="102" y="1705" type="line"/>
      <point x="268" y="1540"/>
      <point x="351" y="1171"/>
      <point x="351" y="801" type="curve" smooth="yes"/>
      <point x="351" y="432"/>
      <point x="268" y="62"/>
      <point x="102" y="-103" type="curve"/>
    </contour>
  </outline>
</glyph>
<glyph name="hyphen" format="1">
  <advance width="816"/>
  <unicode hex="002D"/>
  <outline>
    <contour>
      <point x="102" y="474" type="line"/>
      <point x="715" y="474" type="line"/>
      <point x="715" y="554" type="line"/>
      <point x="102" y="554" type="line"/>
    </contour>
    <contour>
      <point x="413" y="523" type="move" name="_mid"/>
    </contour>
  </outline>
</glyph>
<glyph name="one" format="1">
  <advance width="1270"/>
  <unicode hex="0031"/>
  <outline>
    <contour>
      <point x="713" y="0" type="line"/>
      <point x="811" y="0" type="line"/>
      <point x="811" y="1172" type="line"/>
      <point x="699" y="1172" type="line"/>
      <point x="418" y="1027" type="line"/>
      <point x="449" y="961" type="line"/>
      <point x="713" y="1098" type="line"/>
    </contour>
  </outline>
</glyph>
<glyph name="three" format="1">
  <advance width="1270"/>
  <unicode hex="0033"/>
  <outline>
    <contour>
      <point x="619" y="-213" type="curve" smooth="yes"/>
      <point x="844" y="-213"/>
      <point x="1034" y="-110"/>
      <point x="1041" y="141" type="curve" smooth="yes"/>
      <point x="1048" y="377"/>
      <point x="911" y="506"/>
      <point x="679" y="540" type="curve"/>
      <point x="824" y="540"/>
      <point x="993" y="607"/>
      <point x="993" y="853" type="curve" smooth="yes"/>
      <point x="993" y="1083"/>
      <point x="839" y="1190"/>
      <point x="607" y="1190" type="curve" smooth="yes"/>
      <point x="442" y="1190"/>
      <point x="337" y="1130"/>
      <point x="259" y="1080" type="curve"/>
      <point x="288" y="1006" type="line"/>
      <point x="367" y="1057"/>
      <point x="474" y="1113"/>
      <point x="607" y="1113" type="curve" smooth="yes"/>
      <point x="753" y="1113"/>
      <point x="899" y="1061"/>
      <point x="899" y="853" type="curve" smooth="yes"/>
      <point x="899" y="619"/>
      <point x="728" y="583"/>
      <point x="572" y="583" type="curve"/>
      <point x="572" y="502" type="line"/>
      <point x="831" y="462"/>
      <point x="958" y="384"/>
      <point x="949" y="142" type="curve" smooth="yes"/>
      <point x="942" y="-54"/>
      <point x="804" y="-136"/>
      <point x="619" y="-136" type="curve" smooth="yes"/>
      <point x="511" y="-136"/>
      <point x="394" y="-118"/>
      <point x="286" y="-69" type="curve"/>
      <point x="260" y="-141" type="line"/>
      <point x="375" y="-191"/>
      <point x="502" y="-213"/>
    </contour>
  </outline>
</glyph>
<glyph name="greater" format="1">
  <advance width="1454"/>
  <unicode hex="003E"/>
  <outline>
    <contour>
      <point x="300.152" y="197.246" type="line"/>
      <point x="1180.33" y="753" type="line"/>
      <point x="300.152" y="1308.75" type="line"/>
      <point x="260.631" y="1253.72" type="line"/>
      <point x="1030.51" y="753" type="line"/>
      <point x="260.631" y="252.275" type="line"/>
    </contour>
  </outline>
</glyph>
<glyph name="A" format="1">
  <advance width="1431"/>
  <unicode hex="0041"/>
  <outline>
    <contour>
      <point x="86" y="0" type="line"/>
      <point x="183" y="0" type="line"/>
      <point x="325" y="401" type="line"/>
      <point x="1106" y="401" type="line"/>
      <point x="1248" y="0" type="line"/>
      <point x="1345" y="0" type="line"/>
      <point x="782" y="1616" type="line"/>
      <point x="640" y="1616" type="line"/>
    </contour>
    <contour>
      <point x="351" y="482" type="line"/>
      <point x="712" y="1545" type="line"/>
      <point x="1076" y="482" type="line"/>
    </contour>
    <contour>
      <point x="708" y="1620" type="move" name="top"/>
    </contour>
    <contour>
      <point x="1293" y="0" type="move" name="ogonek"/>
    </contour>
  </outline>
</glyph>
<glyph name="B" format="1">
  <advance width="1372"/>
  <unicode hex="0042"/>
  <outline>
    <contour>
      <point x="180" y="0" type="line"/>
      <point x="577" y="0" type="line" smooth="yes"/>
      <point x="949" y="0"/>
      <point x="1246" y="67"/>
      <point x="1246" y="451" type="curve" smooth="yes"/>
      <point x="1246" y="715"/>
      <point x="1124" y="839"/>
      <point x="867" y="873" type="curve"/>
      <point x="1059" y="912"/>
      <point x="1168" y="1013"/>
      <point x="1168" y="1243" type="curve" smooth="yes"/>
      <point x="1168" y="1603"/>
      <point x="834" y="1616"/>
      <point x="538" y="1616" type="curve" smooth="yes"/>
      <point x="180" y="1616" type="line"/>
    </contour>
    <contour>
      <point x="278" y="84" type="line"/>
      <point x="278" y="827" type="line"/>
      <point x="611" y="827" type="line" smooth="yes"/>
      <point x="877" y="827"/>
      <point x="1161" y="780"/>
      <point x="1161" y="458" type="curve" smooth="yes"/>
      <point x="1161" y="97"/>
      <point x="857" y="84"/>
      <point x="563" y="84" type="curve" smooth="yes"/>
    </contour>
    <contour>
      <point x="278" y="911" type="line"/>
      <point x="278" y="1532" type="line"/>
      <point x="548" y="1534" type="line" smooth="yes"/>
      <point x="816" y="1536"/>
      <point x="1080" y="1518"/>
      <point x="1080" y="1250" type="curve" smooth="yes"/>
      <point x="1080" y="951"/>
      <point x="855" y="911"/>
      <point x="612" y="911" type="curve" smooth="yes"/>
    </contour>
    <contour>
      <point x="680" y="1620" type="move" name="top"/>
    </contour>
  </outline>
</glyph>
<glyph name="C" format="1">
  <advance width="1291"/>
  <unicode hex="0043"/>
  <outline>
    <contour>
      <point x="785" y="-18" type="curve" smooth="yes"/>
      <point x="945" y="-18"/>
      <point x="1118" y="50"/>
      <point x="1215" y="120" type="curve"/>
      <point x="1175" y="185" type="line"/>
      <point x="1083" y="128"/>
      <point x="961" y="66"/>
      <point x="781" y="66" type="curve" smooth="yes"/>
      <point x="300" y="66"/>
      <point x="230" y="465"/>
      <point x="230" y="789" type="curve" smooth="yes"/>
      <point x="230" y="1102"/>
      <point x="307" y="1554"/>
      <point x="790" y="1554" type="curve" smooth="yes"/>
      <point x="977" y="1554"/>
      <point x="1104" y="1472"/>
      <point x="1135" y="1450" type="curve"/>
      <point x="1171" y="1520" type="line"/>
      <point x="1128" y="1553"/>
      <point x="979" y="1638"/>
      <point x="791" y="1638" type="curve" smooth="yes"/>
      <point x="283" y="1638"/>
      <point x="128" y="1218"/>
      <point x="128" y="790" type="curve" smooth="yes"/>
      <point x="128" y="395"/>
      <point x="250" y="-18"/>
    </contour>
    <contour>
      <point x="775" y="1620" type="move" name="top"/>
    </contour>
    <contour>
      <point x="741" y="0" type="move" name="bot"/>
    </contour>
  </outline>
</glyph>
<glyph name="K" format="1">
  <advance width="1271"/>
  <unicode hex="004B"/>
  <outline>
    <contour>
      <point x="180" y="0" type="line"/>
      <point x="278" y="0" type="line"/>
      <point x="278" y="786" type="line"/>
      <point x="337" y="786" type="line"/>
      <point x="1114" y="0" type="line"/>
      <point x="1235" y="0" type="line"/>
      <point x="426" y="827" type="line"/>
      <point x="1180" y="1616" type="line"/>
      <point x="1066" y="1616" type="line"/>
      <point x="332" y="855" type="line"/>
      <point x="278" y="855" type="line"/>
      <point x="278" y="1616" type="line"/>
      <point x="180" y="1616" type="line"/>
    </contour>
    <contour>
      <point x="621" y="1620" type="move" name="top"/>
    </contour>
    <contour>
      <point x="647" y="0" type="move" name="bot"/>
    </contour>
  </outline>
</glyph>
<glyph name="N" format="1">
  <advance width="1571"/>
  <unicode hex="004E"/>
  <outline>
    <contour>
      <point x="180" y="0" type="line"/>
      <point x="272" y="0" type="line"/>
      <point x="272" y="1531" type="line"/>
      <point x="1246" y="0" type="line"/>
      <point x="1391" y="0" type="line"/>
      <point x="1391" y="1616" type="line"/>
      <point x="1299" y="1616" type="line"/>
      <point x="1299" y="82" type="line"/>
      <point x="318" y="1616" type="line"/>
      <point x="180" y="1616" type="line"/>
    </contour>
    <contour>
      <point x="841" y="1620" type="move" name="top"/>
    </contour>
    <contour>
      <point x="837" y="0" type="move" name="bot"/>
    </contour>
  </outline>
</glyph>
<glyph name="V" format="1">
  <advance width="1409"/>
  <unicode hex="0056"/>
  <outline>
    <contour>
      <point x="629" y="0" type="line"/>
      <point x="765" y="0" type="line"/>
      <point x="1353" y="1616" type="line"/>
      <point x="1257" y="1616" type="line"/>
      <point x="693" y="80" type="line"/>
      <point x="152" y="1616" type="line"/>
      <point x="56" y="1616" type="line"/>
    </contour>
  </outline>
</glyph>
<glyph name="a" format="1">
  <advance width="1207.940"/>
  <unicode hex="0061"/>
  <outline>
    <contour>
      <point x="510" y="-18" type="curve" smooth="yes"/>
      <point x="691" y="-18"/>
      <point x="826" y="56"/>
      <point x="940" y="192" type="curve"/>
      <point x="960" y="0" type="line"/>
      <point x="1028" y="0" type="line"/>
      <point x="1028" y="728" type="line" smooth="yes"/>
      <point x="1028" y="1093"/>
      <point x="817" y="1190"/>
      <point x="600" y="1190" type="curve" smooth="yes"/>
      <point x="433" y="1190"/>
      <point x="262" y="1128"/>
      <point x="179" y="1080" type="curve"/>
      <point x="210" y="1005" type="line"/>
      <point x="281" y="1042"/>
      <point x="445" y="1110"/>
      <point x="598" y="1110" type="curve" smooth="yes"/>
      <point x="772" y="1110"/>
      <point x="932" y="1031"/>
      <point x="932" y="726" type="curve" smooth="yes"/>
      <point x="932" y="642" type="line"/>
      <point x="839" y="676"/>
      <point x="685" y="688"/>
      <point x="579" y="688" type="curve" smooth="yes"/>
      <point x="266" y="688"/>
      <point x="115" y="568"/>
      <point x="119" y="329" type="curve" smooth="yes"/>
      <point x="123" y="82"/>
      <point x="301" y="-18"/>
    </contour>
    <contour>
      <point x="521" y="62" type="curve" smooth="yes"/>
      <point x="383" y="62"/>
      <point x="221" y="118"/>
      <point x="217" y="334" type="curve" smooth="yes"/>
      <point x="213" y="552"/>
      <point x="372" y="613"/>
      <point x="586" y="613" type="curve" smooth="yes"/>
      <point x="704" y="613"/>
      <point x="817" y="608"/>
      <point x="932" y="576" type="curve"/>
      <point x="932" y="259" type="line"/>
      <point x="817" y="131"/>
      <point x="702" y="62"/>
    </contour>
    <contour>
      <point x="588" y="1172" type="move" name="top"/>
    </contour>
    <contour>
      <point x="996" y="0" type="move" name="ogonek"/>
    </contour>
  </outline>
</glyph>
<glyph name="g" format="1">
  <advance width="1207"/>
  <unicode hex="0067"/>
  <outline>
    <contour>
      <point x="564" y="-363" type="curve" smooth="yes"/>
      <point x="903" y="-363"/>
      <point x="1106" y="-276"/>
      <point x="1106" y="-47" type="curve" smooth="yes"/>
      <point x="1106" y="200"/>
      <point x="962" y="246"/>
      <point x="750" y="246" type="curve" smooth="yes"/>
      <point x="342" y="246" type="line"/>
      <point x="342" y="246"/>
      <point x="291" y="261"/>
      <point x="291" y="361" type="curve" smooth="yes"/>
      <point x="291" y="421"/>
      <point x="340" y="512"/>
      <point x="350" y="532" type="curve"/>
      <point x="371" y="519"/>
      <point x="450" y="474"/>
      <point x="590" y="474" type="curve" smooth="yes"/>
      <point x="830" y="474"/>
      <point x="1004" y="613"/>
      <point x="1004" y="824" type="curve" smooth="yes"/>
      <point x="1004" y="924"/>
      <point x="963" y="1019"/>
      <point x="912" y="1058" type="curve"/>
      <point x="1147" y="1091" type="line"/>
      <point x="1140" y="1169" type="line"/>
      <point x="1045" y="1168"/>
      <point x="953" y="1142"/>
      <point x="880" y="1104" type="curve"/>
      <point x="809" y="1160"/>
      <point x="707" y="1190"/>
      <point x="614" y="1190" type="curve" smooth="yes"/>
      <point x="312" y="1190"/>
      <point x="176" y="1027"/>
      <point x="176" y="826" type="curve" smooth="yes"/>
      <point x="176" y="646"/>
      <point x="303" y="564"/>
      <point x="317" y="552" type="curve"/>
      <point x="235" y="479"/>
      <point x="203" y="414"/>
      <point x="203" y="349" type="curve" smooth="yes"/>
      <point x="203" y="256"/>
      <point x="232" y="192"/>
      <point x="327" y="180" type="curve"/>
      <point x="234" y="143"/>
      <point x="182" y="54"/>
      <point x="182" y="-78" type="curve" smooth="yes"/>
      <point x="182" y="-327"/>
      <point x="362" y="-363"/>
    </contour>
    <contour>
      <point x="558" y="-288" type="curve" smooth="yes"/>
      <point x="364" y="-288"/>
      <point x="269" y="-234"/>
      <point x="269" y="-75" type="curve" smooth="yes"/>
      <point x="269" y="78"/>
      <point x="353" y="154"/>
      <point x="421" y="172" type="curve"/>
      <point x="747" y="172" type="line" smooth="yes"/>
      <point x="906" y="172"/>
      <point x="1018" y="160"/>
      <point x="1018" y="-53" type="curve" smooth="yes"/>
      <point x="1018" y="-227"/>
      <point x="866" y="-288"/>
    </contour>
    <contour>
      <point x="588" y="543" type="curve" smooth="yes"/>
      <point x="368" y="543"/>
      <point x="267" y="661"/>
      <point x="267" y="833" type="curve" smooth="yes"/>
      <point x="267" y="985"/>
      <point x="358" y="1120"/>
      <point x="617" y="1120" type="curve" smooth="yes"/>
      <point x="827" y="1120"/>
      <point x="917" y="989"/>
      <point x="917" y="819" type="curve" smooth="yes"/>
      <point x="917" y="683"/>
      <point x="838" y="543"/>
    </contour>
    <contour>
      <point x="606" y="1172" type="move" name="top"/>
    </contour>
  </outline>
</glyph>
<glyph name="i" format="1">
  <advance width="524"/>
  <unicode hex="0069"/>
  <outline>
    <contour>
      <point x="214" y="0" type="line"/>
      <point x="310" y="0" type="line"/>
      <point x="310" y="1172" type="line"/>
      <point x="214" y="1172" type="line"/>
    </contour>
    <contour>
      <point x="264" y="1352" type="curve" smooth="yes"/>
      <point x="311" y="1352"/>
      <point x="334" y="1387"/>
      <point x="334" y="1423" type="curve" smooth="yes"/>
      <point x="334" y="1458"/>
      <point x="311" y="1493"/>
      <point x="264" y="1493" type="curve" smooth="yes"/>
      <point x="217" y="1493"/>
      <point x="194" y="1458"/>
      <point x="194" y="1423" type="curve" smooth="yes"/>
      <point x="194" y="1387"/>
      <point x="217" y="1352"/>
    </contour>
    <contour>
      <point x="243" y="0" type="move" name="ogonek"/>
    </contour>
  </outline>
</glyph>
<glyph name="m" format="1">
  <advance width="2072"/>
  <unicode hex="006D"/>
  <outline>
    <contour>
      <point x="190" y="0" type="line"/>
      <point x="286" y="0" type="line"/>
      <point x="285" y="901" type="line"/>
      <point x="415" y="1046"/>
      <point x="558" y="1110"/>
      <point x="713" y="1110" type="curve" smooth="yes"/>
      <point x="980" y="1110"/>
      <point x="993" y="932"/>
      <point x="993" y="716" type="curve" smooth="yes"/>
      <point x="993" y="0" type="line"/>
      <point x="1089" y="0" type="line"/>
      <point x="1089" y="725" type="line" smooth="yes"/>
      <point x="1089" y="781"/>
      <point x="1087" y="837"/>
      <point x="1079" y="890" type="curve"/>
      <point x="1222" y="1061"/>
      <point x="1364" y="1110"/>
      <point x="1518" y="1110" type="curve" smooth="yes"/>
      <point x="1785" y="1110"/>
      <point x="1798" y="932"/>
      <point x="1798" y="716" type="curve" smooth="yes"/>
      <point x="1798" y="0" type="line"/>
      <point x="1894" y="0" type="line"/>
      <point x="1894" y="725" type="line" smooth="yes"/>
      <point x="1894" y="956"/>
      <point x="1857" y="1190"/>
      <point x="1526" y="1190" type="curve" smooth="yes"/>
      <point x="1349" y="1190"/>
      <point x="1193" y="1132"/>
      <point x="1062" y="968" type="curve"/>
      <point x="1023" y="1096"/>
      <point x="931" y="1190"/>
      <point x="721" y="1190" type="curve" smooth="yes"/>
      <point x="542" y="1190"/>
      <point x="402" y="1128"/>
      <point x="278" y="979" type="curve"/>
      <point x="261" y="1172" type="line"/>
      <point x="190" y="1172" type="line"/>
    </contour>
    <contour>
      <point x="1095" y="1172" type="move" name="top"/>
    </contour>
  </outline>
</glyph>
<glyph name="s" format="1">
  <advance width="988.001"/>
  <unicode hex="0073"/>
  <outline>
    <contour>
      <point x="495" y="-18" type="curve" smooth="yes"/>
      <point x="709" y="-18"/>
      <point x="879" y="71"/>
      <point x="888" y="304" type="curve" smooth="yes"/>
      <point x="897" y="533"/>
      <point x="753" y="588"/>
      <point x="615" y="634" type="curve" smooth="yes"/>
      <point x="461" y="685" type="line" smooth="yes"/>
      <point x="316" y="733"/>
      <point x="217" y="754"/>
      <point x="217" y="889" type="curve" smooth="yes"/>
      <point x="217" y="1060"/>
      <point x="357" y="1110"/>
      <point x="478" y="1110" type="curve" smooth="yes"/>
      <point x="605" y="1110"/>
      <point x="714" y="1076"/>
      <point x="796" y="1012" type="curve"/>
      <point x="835" y="1078" type="line"/>
      <point x="753" y="1148"/>
      <point x="612" y="1190"/>
      <point x="472" y="1190" type="curve" smooth="yes"/>
      <point x="316" y="1190"/>
      <point x="124" y="1120"/>
      <point x="124" y="888" type="curve" smooth="yes"/>
      <point x="124" y="693"/>
      <point x="288" y="645"/>
      <point x="435" y="600" type="curve" smooth="yes"/>
      <point x="576" y="557" type="line" smooth="yes"/>
      <point x="719" y="513"/>
      <point x="797" y="472"/>
      <point x="793" y="305" type="curve" smooth="yes"/>
      <point x="788" y="109"/>
      <point x="642" y="62"/>
      <point x="501" y="62" type="curve" smooth="yes"/>
      <point x="380" y="62"/>
      <point x="261" y="106"/>
      <point x="173" y="179" type="curve"/>
      <point x="134" y="110" type="line"/>
      <point x="199" y="43"/>
      <point x="353" y="-18"/>
    </contour>
    <contour>
      <point x="523" y="1172" type="move" name="top"/>
    </contour>
    <contour>
      <point x="520" y="0" type="move" name="bot"/>
    </contour>
  </outline>
</glyph>
<glyph name="v" format="1">
  <advance width="1076"/>
  <unicode hex="0076"/>
  <outline>
    <contour>
      <point x="497" y="0" type="line"/>
      <point x="577" y="0" type="line"/>
      <point x="1016" y="1172" type="line"/>
      <point x="921" y="1172" type="line"/>
      <point x="539" y="120" type="line"/>
      <point x="154" y="1172" type="line"/>
      <point x="60" y="1172" type="line"/>
    </contour>
  </outline>
</glyph>
<glyph name="z" format="1">
  <advance width="927"/>
  <unicode hex="007A"/>
  <outline>
    <contour>
      <point x="101" y="0" type="line"/>
      <point x="854" y="0" type="line"/>
      <point x="854" y="81" type="line"/>
      <point x="203" y="81" type="line"/>
      <point x="852" y="1091" type="line"/>
      <point x="853" y="1172" type="line"/>
      <point x="134" y="1172" type="line"/>
      <point x="134" y="1099" type="line"/>
      <point x="758" y="1099" type="line"/>
      <point x="101" y="87" type="line"/>
    </contour>
    <contour>
      <point x="481" y="1172" type="move" name="top"/>
    </contour>
  </outline>
</glyph>
<glyph name="sterling" format="1">
  <advance width="968"/>
  <unicode hex="00A3"/>
  <outline>
    <contour>
      <point x="123" y="0" type="line"/>
      <point x="900" y="0" type="line"/>
      <point x="900" y="71" type="line"/>
      <point x="221" y="71" type="line"/>
      <point x="353" y="194"/>
      <point x="410" y="316"/>
      <point x="410" y="435" type="curve" smooth="yes"/>
      <point x="410" y="498"/>
      <point x="394" y="559"/>
      <point x="365" y="620" type="curve"/>
      <point x="805" y="620" type="line"/>
      <point x="805" y="683" type="line"/>
      <point x="340" y="683" type="line"/>
      <point x="263" y="800"/>
      <point x="228" y="905"/>
      <point x="228" y="992" type="curve" smooth="yes"/>
      <point x="228" y="1204"/>
      <point x="429" y="1245"/>
      <point x="555" y="1245" type="curve" smooth="yes"/>
      <point x="664" y="1245"/>
      <point x="768" y="1217"/>
      <point x="857" y="1159" type="curve"/>
      <point x="886" y="1225" type="line"/>
      <point x="803" y="1289"/>
      <point x="678" y="1324"/>
      <point x="546" y="1324" type="curve" smooth="yes"/>
      <point x="385" y="1324"/>
      <point x="134" y="1263"/>
      <point x="134" y="995" type="curve" smooth="yes"/>
      <point x="134" y="900"/>
      <point x="170" y="793"/>
      <point x="244" y="683" type="curve"/>
      <point x="70" y="683" type="line"/>
      <point x="70" y="620" type="line"/>
      <point x="275" y="620" type="line"/>
      <point x="305" y="556"/>
      <point x="319" y="496"/>
      <point x="319" y="438" type="curve" smooth="yes"/>
      <point x="319" y="303"/>
      <point x="245" y="180"/>
      <point x="123" y="62" type="curve"/>
    </contour>
  </outline>
</glyph>
<glyph name="uni00B2" format="1">
  <advance width="1270"/>
  <unicode hex="00B2"/>
  <outline>
    <contour>
      <point x="272" y="652" type="line"/>
      <point x="997" y="652" type="line"/>
      <point x="997" y="720" type="line"/>
      <point x="385" y="720" type="line"/>
      <point x="709" y="1019" type="line" smooth="yes"/>
      <point x="835" y="1135"/>
      <point x="983" y="1275"/>
      <point x="983" y="1472" type="curve" smooth="yes"/>
      <point x="983" y="1693"/>
      <point x="835" y="1796"/>
      <point x="612" y="1796" type="curve" smooth="yes"/>
      <point x="454" y="1796"/>
      <point x="353" y="1738"/>
      <point x="278" y="1690" type="curve"/>
      <point x="306" y="1619" type="line"/>
      <point x="382" y="1668"/>
      <point x="484" y="1722"/>
      <point x="612" y="1722" type="curve" smooth="yes"/>
      <point x="753" y="1722"/>
      <point x="892" y="1672"/>
      <point x="892" y="1472" type="curve" smooth="yes"/>
      <point x="892" y="1299"/>
      <point x="786" y="1202"/>
      <point x="655" y="1079" type="curve" smooth="yes"/>
      <point x="272" y="716" type="line"/>
    </contour>
  </outline>
</glyph>
<glyph name="paragraph" format="1">
  <advance width="1155"/>
  <unicode hex="00B6"/>
  <outline>
    <contour>
      <point x="562" y="-80" type="line"/>
      <point x="658" y="-80" type="line"/>
      <point x="658" y="1540" type="line"/>
      <point x="853" y="1540" type="line"/>
      <point x="853" y="-80" type="line"/>
      <point x="949" y="-80" type="line"/>
      <point x="949" y="1620" type="line"/>
      <point x="608" y="1620" type="line" smooth="yes"/>
      <point x="355" y="1620"/>
      <point x="111" y="1587"/>
      <point x="111" y="1322" type="curve" smooth="yes"/>
      <point x="111" y="1079"/>
      <point x="327" y="1000"/>
      <point x="562" y="1000" type="curve"/>
    </contour>
  </outline>
</glyph>
<glyph name="guillemotright" format="1">
  <advance width="953"/>
  <unicode hex="00BB"/>
  <outline>
    <contour>
      <point x="104" y="275" type="line"/>
      <point x="547" y="637" type="line"/>
      <point x="547" y="704" type="line"/>
      <point x="104" y="1058" type="line"/>
      <point x="104" y="982" type="line"/>
      <point x="481" y="671" type="line"/>
      <point x="104" y="361" type="line"/>
    </contour>
    <contour>
      <point x="444" y="275" type="line"/>
      <point x="887" y="637" type="line"/>
      <point x="887" y="704" type="line"/>
      <point x="444" y="1058" type="line"/>
      <point x="444" y="982" type="line"/>
      <point x="821" y="671" type="line"/>
      <point x="444" y="361" type="line"/>
    </contour>
  </outline>
</glyph>
<glyph name="threequarters" format="1">
  <advance width="2169"/>
  <unicode hex="00BE"/>
  <outline>
    <contour>
      <point x="445" y="626" type="curve" smooth="yes"/>
      <point x="612" y="626"/>
      <point x="754" y="702"/>
      <point x="759" y="887" type="curve" smooth="yes"/>
      <point x="764" y="1043"/>
      <point x="681" y="1136"/>
      <point x="535" y="1171" type="curve"/>
      <point x="630" y="1184"/>
      <point x="724" y="1243"/>
      <point x="724" y="1399" type="curve" smooth="yes"/>
      <point x="724" y="1569"/>
      <point x="609" y="1648"/>
      <point x="436" y="1648" type="curve" smooth="yes"/>
      <point x="309" y="1648"/>
      <point x="230" y="1600"/>
      <point x="175" y="1565" type="curve"/>
      <point x="200" y="1497" type="line"/>
      <point x="260" y="1537"/>
      <point x="337" y="1580"/>
      <point x="436" y="1580" type="curve" smooth="yes"/>
      <point x="539" y="1580"/>
      <point x="636" y="1546"/>
      <point x="636" y="1399" type="curve" smooth="yes"/>
      <point x="636" y="1230"/>
      <point x="515" y="1210"/>
      <point x="401" y="1211" type="curve"/>
      <point x="401" y="1141" type="line"/>
      <point x="588" y="1115"/>
      <point x="679" y="1060"/>
      <point x="672" y="887" type="curve" smooth="yes"/>
      <point x="667" y="750"/>
      <point x="572" y="693"/>
      <point x="445" y="693" type="curve" smooth="yes"/>
      <point x="365" y="693"/>
      <point x="280" y="707"/>
      <point x="199" y="745" type="curve"/>
      <point x="175" y="681" type="line"/>
      <point x="260" y="642"/>
      <point x="357" y="626"/>
    </contour>
    <contour>
      <point x="1809" y="-8" type="line"/>
      <point x="1809" y="283" type="line"/>
      <point x="1967" y="283" type="line"/>
      <point x="1967" y="342" type="line"/>
      <point x="1809" y="342" type="line"/>
      <point x="1809" y="1128" type="line"/>
      <point x="1723" y="1147" type="line"/>
      <point x="1167" y="365" type="line"/>
      <point x="1183" y="283" type="line"/>
      <point x="1717" y="283" type="line"/>
      <point x="1717" y="0" type="line"/>
    </contour>
    <contour>
      <point x="591" y="-17" type="line"/>
      <point x="1630" y="1629" type="line"/>
      <point x="1560" y="1674" type="line"/>
      <point x="523" y="28" type="line"/>
    </contour>
    <contour>
      <point x="1248" y="342" type="line"/>
      <point x="1717" y="1019" type="line"/>
      <point x="1717" y="342" type="line"/>
    </contour>
  </outline>
</glyph>
<glyph name="Thorn" format="1">
  <advance width="1290"/>
  <unicode hex="00DE"/>
  <outline>
    <contour>
      <point x="160" y="0" type="line"/>
      <point x="258" y="0" type="line"/>
      <point x="258" y="450" type="line"/>
      <point x="666" y="450" type="line" smooth="yes"/>
      <point x="974" y="450"/>
      <point x="1225" y="512"/>
      <point x="1225" y="877" type="curve" smooth="yes"/>
      <point x="1225" y="1259"/>
      <point x="912" y="1280"/>
      <point x="678" y="1280" type="curve" smooth="yes"/>
      <point x="258" y="1280" type="line"/>
      <point x="258" y="1620" type="line"/>
      <point x="160" y="1620" type="line"/>
    </contour>
    <contour>
      <point x="258" y="536" type="line"/>
      <point x="258" y="1196" type="line"/>
      <point x="680" y="1196" type="line" smooth="yes"/>
      <point x="931" y="1196"/>
      <point x="1122" y="1159"/>
      <point x="1122" y="878" type="curve" smooth="yes"/>
      <point x="1122" y="572"/>
      <point x="948" y="536"/>
      <point x="666" y="536" type="curve" smooth="yes"/>
    </contour>
  </outline>
</glyph>
<glyph name="oslash" format="1">
  <advance width="1089"/>
  <unicode hex="00F8"/>
  <outline>
    <contour>
      <point x="295" y="-209" type="line"/>
      <point x="368" y="5" type="line"/>
      <point x="421" y="-11"/>
      <point x="475" y="-17"/>
      <point x="526" y="-17" type="curve" smooth="yes"/>
      <point x="884" y="-17"/>
      <point x="1037" y="273"/>
      <point x="1037" y="582" type="curve" smooth="yes"/>
      <point x="1037" y="777"/>
      <point x="976" y="1013"/>
      <point x="759" y="1134" type="curve"/>
      <point x="830" y="1339" type="line"/>
      <point x="762" y="1366" type="line"/>
      <point x="691" y="1163" type="line"/>
      <point x="637" y="1180"/>
      <point x="580" y="1187"/>
      <point x="526" y="1187" type="curve" smooth="yes"/>
      <point x="168" y="1187"/>
      <point x="17" y="884"/>
      <point x="17" y="582" type="curve" smooth="yes"/>
      <point x="17" y="391"/>
      <point x="74" y="150"/>
      <point x="292" y="35" type="curve"/>
      <point x="217" y="-182" type="line"/>
    </contour>
    <contour>
      <point x="320" y="108" type="line"/>
      <point x="149" y="205"/>
      <point x="109" y="408"/>
      <point x="109" y="581" type="curve" smooth="yes"/>
      <point x="109" y="796"/>
      <point x="190" y="1100"/>
      <point x="526" y="1100" type="curve" smooth="yes"/>
      <point x="569" y="1100"/>
      <point x="616" y="1095"/>
      <point x="660" y="1080" type="curve"/>
    </contour>
    <contour>
      <point x="526" y="68" type="curve" smooth="yes"/>
      <point x="484" y="68"/>
      <point x="439" y="71"/>
      <point x="396" y="84" type="curve"/>
      <point x="732" y="1059" type="line"/>
      <point x="908" y="952"/>
      <point x="942" y="734"/>
      <point x="942" y="581" type="curve" smooth="yes"/>
      <point x="942" y="364"/>
      <point x="863" y="68"/>
    </contour>
    <contour>
      <point x="531" y="1172" type="move" name="top"/>
    </contour>
  </outline>
</glyph>
<glyph name="hbar" format="1">
  <advance width="1221"/>
  <unicode hex="0127"/>
  <outline>
    <contour>
      <point x="147" y="0" type="line"/>
      <point x="243" y="0" type="line"/>
      <point x="243" y="899" type="line"/>
      <point x="375" y="1030"/>
      <point x="530" y="1110"/>
      <point x="685" y="1110" type="curve" smooth="yes"/>
      <point x="948" y="1110"/>
      <point x="991" y="935"/>
      <point x="991" y="719" type="curve" smooth="yes"/>
      <point x="991" y="0" type="line"/>
      <point x="1087" y="0" type="line"/>
      <point x="1087" y="728" type="line" smooth="yes"/>
      <point x="1087" y="959"/>
      <point x="1032" y="1190"/>
      <point x="701" y="1190" type="curve" smooth="yes"/>
      <point x="524" y="1190"/>
      <point x="378" y="1119"/>
      <point x="243" y="988" type="curve"/>
      <point x="243" y="1389" type="line"/>
      <point x="623" y="1389" type="line"/>
      <point x="623" y="1457" type="line"/>
      <point x="243" y="1457" type="line"/>
      <point x="243" y="1604" type="line"/>
      <point x="147" y="1580" type="line"/>
      <point x="147" y="1457" type="line"/>
      <point x="1" y="1457" type="line"/>
      <point x="1" y="1389" type="line"/>
      <point x="147" y="1389" type="line"/>
    </contour>
    <contour>
      <point x="701" y="1172" type="move" name="top"/>
    </contour>
  </outline>
</glyph>
<glyph name="breve" format="1">
  <advance width="520"/>
  <unicode hex="02D8"/>
  <outline>
    <contour>
      <point x="262" y="1328" type="curve" smooth="yes"/>
      <point x="388" y="1328"/>
      <point x="467" y="1410"/>
      <point x="467" y="1541" type="curve"/>
      <point x="394" y="1541" type="line"/>
      <point x="395" y="1455"/>
      <point x="343" y="1401"/>
      <point x="259" y="1401" type="curve" smooth="yes"/>
      <point x="170" y="1401"/>
      <point x="114" y="1455"/>
      <point x="115" y="1541" type="curve"/>
      <point x="42" y="1541" type="line"/>
      <point x="42" y="1410"/>
      <point x="127" y="1328"/>
    </contour>
    <contour>
      <point x="262" y="1172" type="move" name="_top"/>
    </contour>
  </outline>
</glyph>
<glyph name="dotaccent" format="1">
  <advance width="393"/>
  <unicode hex="02D9"/>
  <outline>
    <contour>
      <point x="197" y="1370" type="curve" smooth="yes"/>
      <point x="231" y="1370"/>
      <point x="252" y="1395"/>
      <point x="252" y="1436" type="curve" smooth="yes"/>
      <point x="252" y="1477"/>
      <point x="231" y="1502"/>
      <point x="197" y="1502" type="curve" smooth="yes"/>
      <point x="159" y="1502"/>
      <point x="135" y="1477"/>
      <point x="135" y="1436" type="curve" smooth="yes"/>
      <point x="135" y="1395"/>
      <point x="159" y="1370"/>
    </contour>
    <contour>
      <point x="207" y="1172" type="move" name="_top"/>
    </contour>
  </outline>
</glyph>
<glyph name="ogonek" format="1">
  <advance width="470"/>
  <unicode hex="02DB"/>
  <outline>
    <contour>
      <point x="346" y="-428" type="curve" smooth="yes"/>
      <point x="379" y="-428"/>
      <point x="412" y="-425"/>
      <point x="444" y="-420" type="curve"/>
      <point x="444" y="-351" type="line"/>
      <point x="412" y="-355"/>
      <point x="382" y="-357"/>
      <point x="354" y="-357" type="curve" smooth="yes"/>
      <point x="277" y="-357"/>
      <point x="223" y="-336"/>
      <point x="223" y="-250" type="curve" smooth="yes"/>
      <point x="223" y="-150"/>
      <point x="294" y="-79"/>
      <point x="352" y="0" type="curve"/>
      <point x="304" y="0" type="line"/>
      <point x="206" y="-92"/>
      <point x="138" y="-191"/>
      <point x="138" y="-272" type="curve" smooth="yes"/>
      <point x="138" y="-394"/>
      <point x="238" y="-428"/>
    </contour>
    <contour>
      <point x="337" y="0" type="move" name="_ogonek"/>
    </contour>
  </outline>
</glyph>
<glyph name="uni0326" format="1">
  <advance width="414"/>
  <unicode hex="0326"/>
  <outline>
    <contour>
      <point x="117" y="-624" type="line"/>
      <point x="202" y="-597"/>
      <point x="247" y="-523"/>
      <point x="247" y="-395" type="curve" smooth="yes"/>
      <point x="247" y="-172" type="line"/>
      <point x="172" y="-172" type="line"/>
      <point x="172" y="-400" type="line"/>
      <point x="208" y="-400" type="line"/>
      <point x="208" y="-506"/>
      <point x="179" y="-573"/>
      <point x="106" y="-597" type="curve"/>
    </contour>
    <contour>
      <point x="206" y="0" type="move" name="_bot"/>
    </contour>
  </outline>
</glyph>
<glyph name="uni03BC" format="1">
  <advance width="1160"/>
  <unicode hex="03BC"/>
  <outline>
    <contour>
      <point x="238" y="-270" type="line"/>
      <point x="237.236" y="91.136" type="line"/>
      <point x="296.989" y="24.443"/>
      <point x="390.547" y="-18"/>
      <point x="535" y="-18" type="curve" smooth="yes"/>
      <point x="717" y="-18"/>
      <point x="880" y="58"/>
      <point x="988" y="204" type="curve"/>
      <point x="1006" y="0" type="line"/>
      <point x="1077" y="0" type="line"/>
      <point x="1077" y="1172" type="line"/>
      <point x="979" y="1172" type="line"/>
      <point x="979" y="290" type="line"/>
      <point x="859" y="130"/>
      <point x="722" y="62"/>
      <point x="535" y="62" type="curve" smooth="yes"/>
      <point x="290.643" y="62"/>
      <point x="242.004" y="214.224"/>
      <point x="236.561" y="409.962" type="curve" smooth="yes"/>
      <point x="236" y="1172" type="line"/>
      <point x="138" y="1172" type="line"/>
      <point x="138" y="-288" type="line"/>
    </contour>
  </outline>
</glyph>
<glyph name="quoteright" format="1">
  <advance width="512"/>
  <unicode hex="2019"/>
  <outline>
    <contour>
      <point x="194" y="1168" type="line"/>
      <point x="328" y="1206"/>
      <point x="316" y="1323"/>
      <point x="316" y="1431" type="curve" smooth="yes"/>
      <point x="316" y="1620" type="line"/>
      <point x="204" y="1620" type="line"/>
      <point x="204" y="1432" type="line"/>
      <point x="270" y="1432" type="line"/>
      <point x="270" y="1288"/>
      <point x="262" y="1234"/>
      <point x="179" y="1201" type="curve"/>
    </contour>
  </outline>
</glyph>
<glyph name="daggerdbl" format="1">
  <advance width="1023"/>
  <unicode hex="2021"/>
  <outline>
    <contour>
      <point x="468" y="-200" type="line"/>
      <point x="553" y="-200" type="line"/>
      <point x="553" y="269" type="line"/>
      <point x="841" y="269" type="line"/>
      <point x="841" y="339" type="line"/>
      <point x="553" y="339" type="line"/>
      <point x="553" y="1044" type="line"/>
      <point x="841" y="1044" type="line"/>
      <point x="841" y="1117" type="line"/>
      <point x="556" y="1117" type="line"/>
      <point x="556" y="1620" type="line"/>
      <point x="468" y="1620" type="line"/>
      <point x="468" y="1117" type="line"/>
      <point x="182" y="1117" type="line"/>
      <point x="182" y="1044" type="line"/>
      <point x="468" y="1044" type="line"/>
      <point x="468" y="339" type="line"/>
      <point x="182" y="339" type="line"/>
      <point x="182" y="269" type="line"/>
      <point x="468" y="269" type="line"/>
    </contour>
  </outline>
</glyph>
<glyph name="Euro" format="1">
  <advance width="1267"/>
  <unicode hex="20AC"/>
  <outline>
    <contour>
      <point x="-113" y="627" type="line"/>
      <point x="759" y="627" type="line"/>
      <point x="759" y="693" type="line"/>
      <point x="183" y="693" type="line"/>
      <point x="183" y="941" type="line"/>
      <point x="759" y="941" type="line"/>
      <point x="759" y="1007" type="line"/>
      <point x="-113" y="1007" type="line"/>
      <point x="-113" y="941" type="line"/>
      <point x="136" y="941" type="line"/>
      <point x="136" y="693" type="line"/>
      <point x="-113" y="693" type="line"/>
    </contour>
    <component base="C"/>
  </outline>
</glyph>
<glyph name="Omega" format="1">
  <advance width="1953"/>
  <unicode hex="2126"/>
  <outline>
    <contour>
      <point x="248" y="0" type="line"/>
      <point x="804" y="0" type="line"/>
      <point x="803" y="61" type="line"/>
      <point x="472" y="255"/>
      <point x="312" y="582"/>
      <point x="312" y="881" type="curve" smooth="yes"/>
      <point x="312" y="1241"/>
      <point x="545" y="1561"/>
      <point x="992" y="1561" type="curve" smooth="yes"/>
      <point x="1439" y="1561"/>
      <point x="1672" y="1241"/>
      <point x="1672" y="881" type="curve" smooth="yes"/>
      <point x="1672" y="582"/>
      <point x="1512" y="255"/>
      <point x="1181" y="61" type="curve"/>
      <point x="1180" y="0" type="line"/>
      <point x="1736" y="0" type="line"/>
      <point x="1744" y="64" type="line"/>
      <point x="1282" y="64" type="line"/>
      <point x="1603" y="246"/>
      <point x="1764" y="573"/>
      <point x="1764" y="882" type="curve" smooth="yes"/>
      <point x="1764" y="1274"/>
      <point x="1505" y="1638"/>
      <point x="992" y="1638" type="curve" smooth="yes"/>
      <point x="479" y="1638"/>
      <point x="220" y="1274"/>
      <point x="220" y="882" type="curve" smooth="yes"/>
      <point x="220" y="573"/>
      <point x="381" y="246"/>
      <point x="702" y="64" type="curve"/>
      <point x="240" y="64" type="line"/>
    </contour>
  </outline>
</glyph>
<glyph name="minus" format="1">
  <advance width="723"/>
  <unicode hex="2212"/>
  <outline>
    <contour>
      <point x="48" y="569" type="line"/>
      <point x="651" y="569" type="line"/>
      <point x="651" y="639" type="line"/>
      <point x="48" y="639" type="line"/>
    </contour>
  </outline>
</glyph>
<glyph name="infinity" format="1">
  <advance width="1670"/>
  <unicode hex="221E"/>
  <outline>
    <contour>
      <point x="380" y="543" type="curve" smooth="yes"/>
      <point x="549" y="543"/>
      <point x="694" y="664"/>
      <point x="835" y="788" type="curve"/>
      <point x="976" y="664"/>
      <point x="1121" y="543"/>
      <point x="1290" y="543" type="curve" smooth="yes"/>
      <point x="1436" y="543"/>
      <point x="1550" y="633"/>
      <point x="1552" y="829" type="curve"/>
      <point x="1550" y="1025"/>
      <point x="1436" y="1115"/>
      <point x="1290" y="1115" type="curve" smooth="yes"/>
      <point x="1121" y="1115"/>
      <point x="976" y="994"/>
      <point x="835" y="870" type="curve"/>
      <point x="694" y="994"/>
      <point x="549" y="1115"/>
      <point x="380" y="1115" type="curve" smooth="yes"/>
      <point x="234" y="1115"/>
      <point x="120" y="1025"/>
      <point x="118" y="829" type="curve" smooth="yes"/>
      <point x="120" y="633"/>
      <point x="234" y="543"/>
    </contour>
    <contour>
      <point x="391" y="612" type="curve" smooth="yes"/>
      <point x="267" y="612"/>
      <point x="185" y="671"/>
      <point x="183" y="829" type="curve"/>
      <point x="185" y="987"/>
      <point x="267" y="1046"/>
      <point x="391" y="1046" type="curve" smooth="yes"/>
      <point x="531" y="1046"/>
      <point x="659" y="942"/>
      <point x="788" y="829" type="curve"/>
      <point x="659" y="716"/>
      <point x="531" y="612"/>
    </contour>
    <contour>
      <point x="1279" y="612" type="curve" smooth="yes"/>
      <point x="1139" y="612"/>
      <point x="1011" y="716"/>
      <point x="882" y="829" type="curve"/>
      <point x="1011" y="942"/>
      <point x="1139" y="1046"/>
      <point x="1279" y="1046" type="curve" smooth="yes"/>
      <point x="1403" y="1046"/>
      <point x="1485" y="987"/>
      <point x="1487" y="829" type="curve" smooth="yes"/>
      <point x="1485" y="671"/>
      <point x="1403" y="612"/>
    </contour>
  </outline>
</glyph>
<glyph name="integral" format="1">
  <advance width="1213"/>
  <unicode hex="222B"/>
  <outline>
    <contour>
      <point x="336" y="-225" type="curve" smooth="yes"/>
      <point x="491" y="-225"/>
      <point x="546" y="-90"/>
      <point x="583" y="193" type="curve" smooth="yes"/>
      <point x="719" y="1224" type="line" smooth="yes"/>
      <point x="753" y="1479"/>
      <point x="808" y="1567"/>
      <point x="919" y="1567" type="curve" smooth="yes"/>
      <point x="967" y="1567"/>
      <point x="1027" y="1550"/>
      <point x="1101" y="1522" type="curve"/>
      <point x="1122" y="1581" type="line"/>
      <point x="1036" y="1616"/>
      <point x="962" y="1638"/>
      <point x="899" y="1638" type="curve" smooth="yes"/>
      <point x="761" y="1638"/>
      <point x="674" y="1534"/>
      <point x="634" y="1233" type="curve" smooth="yes"/>
      <point x="498" y="202" type="line" smooth="yes"/>
      <point x="465" y="-50"/>
      <point x="425" y="-141"/>
      <point x="308" y="-141" type="curve" smooth="yes"/>
      <point x="261" y="-141"/>
      <point x="202" y="-126"/>
      <point x="127" y="-100" type="curve"/>
      <point x="95" y="-155" type="line"/>
      <point x="193" y="-202"/>
      <point x="272" y="-225"/>
    </contour>
  </outline>
</glyph>
<glyph name="uniFB02" format="1">
  <advance width="1175"/>
  <unicode hex="FB02"/>
  <outline>
    <contour>
      <point x="236" y="0" type="line"/>
      <point x="334" y="0" type="line"/>
      <point x="334" y="1106" type="line"/>
      <point x="718" y="1106" type="line"/>
      <point x="718" y="1172" type="line"/>
      <point x="334" y="1172" type="line"/>
      <point x="334" y="1224" type="line" smooth="yes"/>
      <point x="334" y="1448"/>
      <point x="418" y="1550"/>
      <point x="619" y="1550" type="curve" smooth="yes"/>
      <point x="696" y="1550"/>
      <point x="790" y="1535"/>
      <point x="903" y="1506" type="curve"/>
      <point x="903" y="0" type="line"/>
      <point x="999" y="0" type="line"/>
      <point x="999" y="1564" type="line"/>
      <point x="848" y="1606"/>
      <point x="719" y="1628"/>
      <point x="612" y="1628" type="curve" smooth="yes"/>
      <point x="361" y="1628"/>
      <point x="236" y="1504"/>
      <point x="236" y="1224" type="curve" smooth="yes"/>
      <point x="236" y="1172" type="line"/>
      <point x="38" y="1172" type="line"/>
      <point x="38" y="1106" type="line"/>
      <point x="236" y="1106" type="line"/>
    </contour>
  </outline>
</glyph>
<glyph name="caron.alt" format="1">
  <advance width="600"/>
  <outline>
    <component base="comma" xOffset="40" yOffset="1439"/>
    <contour>
      <point x="30" y="1172" type="move" name="_caron.alt"/>
    </contour>
  </outline>
</glyph>
<glyph name="fj" format="1">
  <advance width="1209"/>
  <outline>
    <contour>
      <point x="734" y="-391" type="line"/>
      <point x="999" y="-312"/>
      <point x="1035" y="-244"/>
      <point x="1035" y="101" type="curve" smooth="yes"/>
      <point x="1035" y="1172" type="line"/>
      <point x="334" y="1172" type="line"/>
      <point x="334" y="1429"/>
      <point x="353" y="1528"/>
      <point x="489" y="1539" type="curve" smooth="yes"/>
      <point x="560" y="1545"/>
      <point x="638" y="1525"/>
      <point x="688" y="1506" type="curve"/>
      <point x="709" y="1574" type="line"/>
      <point x="664" y="1594"/>
      <point x="572" y="1621"/>
      <point x="482" y="1614" type="curve" smooth="yes"/>
      <point x="300" y="1599"/>
      <point x="236" y="1509"/>
      <point x="236" y="1172" type="curve"/>
      <point x="38" y="1172" type="line"/>
      <point x="38" y="1106" type="line"/>
      <point x="236" y="1106" type="line"/>
      <point x="236" y="0" type="line"/>
      <point x="334" y="0" type="line"/>
      <point x="334" y="1106" type="line"/>
      <point x="939" y="1106" type="line"/>
      <point x="939" y="101" type="line" smooth="yes"/>
      <point x="939" y="-205"/>
      <point x="931" y="-241"/>
      <point x="709" y="-312" type="curve"/>
    </contour>
    <contour>
      <point x="989" y="1352" type="curve" smooth="yes"/>
      <point x="1036" y="1352"/>
      <point x="1059" y="1387"/>
      <point x="1059" y="1423" type="curve" smooth="yes"/>
      <point x="1059" y="1458"/>
      <point x="1036" y="1493"/>
      <point x="989" y="1493" type="curve" smooth="yes"/>
      <point x="942" y="1493"/>
      <point x="919" y="1458"/>
      <point x="919" y="1423" type="curve" smooth="yes"/>
      <point x="919" y="1387"/>
      <point x="942" y="1352"/>
    </contour>
  </outline>
</glyph>
